<svg version="1.1" viewBox="0.0 0.0 960.0 540.0" fill="none" stroke="none" stroke-linecap="square" stroke-miterlimit="10" xmlns:xlink="http://www.w3.org/1999/xlink" xmlns="http://www.w3.org/2000/svg"><clipPath id="p.0"><path d="m0 0l960.0 0l0 540.0l-960.0 0l0 -540.0z" clip-rule="nonzero"/></clipPath><g clip-path="url(#p.0)"><path fill="#ffffff" d="m0 0l960.0 0l0 540.0l-960.0 0z" fill-rule="evenodd"/><path fill="#000000" fill-opacity="0.0" d="m32.72441 134.09448l894.55115 0l0 271.81104l-894.55115 0z" fill-rule="evenodd"/><path fill="#306998" d="m399.83286 211.13562q-9.078125 0 -17.5 -2.890625l0 -10.65625l11.65625 0l0 0.71875q0 3.453125 4.40625 3.453125q3.875 0 3.875 -2.65625q0 -1.4375 -1.109375 -2.15625q-1.109375 -0.71875 -3.921875 -1.234375l-3.609375 -0.640625q-11.296875 -2.015625 -11.296875 -12.8125q0 -6.265625 4.75 -9.71875q4.75 -3.46875 12.8125 -3.46875q9.0 0 15.203125 3.03125l0 10.0l-10.953125 0l0 -0.71875q0 -1.4375 -0.96875 -2.1875q-0.96875 -0.765625 -2.84375 -0.765625q-3.59375 0 -3.59375 2.3125q0 1.21875 1.0 1.875q1.015625 0.640625 3.671875 1.21875l4.109375 0.796875q6.40625 1.21875 9.140625 4.53125q2.734375 3.3125 2.734375 8.5q0 6.546875 -4.578125 10.015625q-4.5625 3.453125 -12.984375 3.453125zm19.868011 -0.9375l0 -11.890625l3.171875 0l0 -32.390625l-3.171875 0l0 -11.8125l19.734375 0l0 44.203125l3.15625 0l0 11.890625l-22.890625 0zm28.653137 -44.0625l0 -12.03125l14.6875 0l0 12.03125l-14.6875 0zm-3.453125 43.984375l0 -11.8125l3.171875 0l0 -16.40625l-3.171875 0l0 -11.8125l19.734375 0l0 28.21875l3.15625 0l0 11.8125l-22.890625 0zm26.490143 0l0 -11.8125l11.234375 0l0 11.8125l-11.234375 0zm30.177368 1.015625q-7.34375 0 -11.0625 -5.46875q-3.703125 -5.484375 -3.703125 -15.5625q0 -10.078125 3.703125 -15.546875q3.71875 -5.484375 11.0625 -5.484375q3.671875 0 6.515625 1.8125q2.84375 1.796875 4.6406555 4.09375l0 -9.0625l-4.2500305 0l0 -11.8125l20.81253 0l0 44.203125l3.171875 0l0 11.8125l-19.734375 0l0 -4.890625q-1.7969055 2.296875 -4.6406555 4.109375q-2.84375 1.796875 -6.515625 1.796875zm6.984375 -12.828125q2.078125 0 3.125 -1.109375q1.0469055 -1.125 1.0469055 -3.5l0 -7.1875q0 -2.375 -1.0469055 -3.484375q-1.046875 -1.125 -3.125 -1.125q-2.09375 0 -3.140625 1.125q-1.046875 1.109375 -1.046875 3.484375l0 7.1875q0 2.375 1.046875 3.5q1.046875 1.109375 3.140625 1.109375zm47.65732 12.828125q-10.21875 0 -15.984375 -5.359375q-5.75 -5.375 -5.75 -15.671875q0 -10.296875 5.75 -15.65625q5.765625 -5.375 15.984375 -5.375q10.375 0 16.0625 5.4375q5.6875 5.4375 5.6875 15.59375q0 10.296875 -5.765625 15.671875q-5.765625 5.359375 -15.984375 5.359375zm0 -12.828125q2.09375 0 3.125 -1.109375q1.046875 -1.125 1.046875 -3.5l0 -7.1875q0 -2.375 -1.046875 -3.484375q-1.03125 -1.125 -3.125 -1.125q-2.09375 0 -3.140625 1.125q-1.03125 1.109375 -1.03125 3.484375l0 7.1875q0 2.375 1.03125 3.5q1.046875 1.109375 3.140625 1.109375z" fill-rule="nonzero"/><path fill="#306998" d="m206.9734 370.3075l3.609375 0l0 -32.390625l-3.609375 0l0 -11.8125l31.609375 0q9.296875 0 14.1875 4.0q4.8906097 3.984375 4.8906097 12.921875q0 8.921875 -4.8906097 12.921875q-4.890625 4.0 -14.1875 4.0l-7.84375 0l0 10.359375l6.90625 0l0 11.8125l-30.671875 0l0 -11.8125zm26.203125 -20.59375q4.1875 0 4.1875 -4.609375l0 -2.578125q0 -2.375 -1.046875 -3.484375q-1.046875 -1.125 -3.140625 -1.125l-2.4375 0l0 11.796875l2.4375 0z" fill-rule="nonzero"/><path fill="#ffd43b" d="m303.31253 342.08875l0 11.8125l-2.734375 0l-9.4375 24.984375q-3.53125 9.421875 -8.0625 14.140625q-4.53125 4.71875 -11.953125 4.71875q-3.015625 0 -6.125 -0.609375q-3.09375 -0.609375 -5.609375 -1.703125l0 -13.03125l9.9375 0l0 0.734375q0 1.796875 1.875 1.796875q1.65625 0 2.515625 -1.59375l-11.375 -29.4375l-2.734375 0l0 -11.8125l21.375 0l0 11.8125l-2.4375 0l3.734375 11.234375l3.46875 -11.234375l-2.453125 0l0 -11.8125l20.015625 0z" fill-rule="nonzero"/><path fill="#ff5722" d="m358.45718 370.3075l2.890625 0l0 11.8125l-28.234375 0l0 -11.8125l4.328125 0l-1.15625 -5.75l-9.796875 0l-1.140625 5.75l4.3125 0l0 11.8125l-24.625 0l0 -11.8125l2.890625 0l12.15625 -44.203125l26.21875 0l12.15625 44.203125zm-30.375 -13.390625l6.625 0l-2.953125 -14.328125l-0.71875 0l-2.953125 14.328125zm108.14142 13.390625l0 11.8125l-22.75 0l0 -11.8125l3.015625 0l0 -11.796875q0 -2.375 -1.015625 -3.484375q-1.0 -1.125 -3.015625 -1.125q-4.3125 0 -4.3125 4.609375l0 11.796875l3.015625 0l0 11.8125l-22.59375 0l0 -11.8125l3.015625 0l0 -11.796875q0 -2.375 -1.015625 -3.484375q-1.0 -1.125 -3.015625 -1.125q-4.3125 0 -4.3125 4.609375l0 11.796875l3.015625 0l0 11.8125l-22.75 0l0 -11.8125l3.171875 0l0 -16.40625l-3.171875 0l0 -11.8125l19.734375 0l0 5.609375q5.171875 -6.625 12.953125 -6.625q4.390625 0 7.15625 2.0625q2.78125 2.046875 3.9375 5.796875q2.578125 -3.75 5.921875 -5.765625q3.359375 -2.015625 7.890625 -2.015625q5.984375 0 8.96875 3.75q2.984375 3.734375 2.984375 10.296875l0 15.109375l3.171875 0zm19.805267 12.828125q-9.078125 0 -17.5 -2.890625l0 -10.65625l11.65625 0l0 0.71875q0 3.453125 4.40625 3.453125q3.875 0 3.875 -2.65625q0 -1.4375 -1.109375 -2.15625q-1.109375 -0.71875 -3.921875 -1.234375l-3.609375 -0.640625q-11.296875 -2.015625 -11.296875 -12.8125q0 -6.265625 4.75 -9.71875q4.75 -3.46875 12.8125 -3.46875q9.0 0 15.203125 3.03125l0 10.0l-10.953125 0l0 -0.71875q0 -1.4375 -0.96875 -2.1875q-0.96875 -0.765625 -2.84375 -0.765625q-3.59375 0 -3.59375 2.3125q0 1.21875 1.0 1.875q1.015625 0.640625 3.671875 1.21875l4.109375 0.796875q6.40625 1.21875 9.140625 4.53125q2.734375 3.3125 2.734375 8.5q0 6.546875 -4.578125 10.015625q-4.5625 3.453125 -12.984375 3.453125zm37.64926 0q-7.625 0 -11.484375 -3.703125q-3.84375 -3.71875 -3.84375 -12.5l0 -13.03125l-3.171875 0l0 -11.8125q2.734375 0 4.09375 -1.40625q1.375 -1.40625 1.375 -3.84375l0 -3.25l15.265625 0l0 8.5l9.71875 0l0 11.8125l-9.71875 0l0 11.796875q0 2.375 1.046875 3.5q1.046875 1.109375 3.125 1.109375q2.734375 0 5.984375 -0.640625l0 11.296875q-2.015625 0.796875 -5.4375 1.484375q-3.421875 0.6875 -6.953125 0.6875zm36.14389 0q-10.21875 0 -15.984375 -5.359375q-5.75 -5.375 -5.75 -15.671875q0 -10.296875 5.75 -15.65625q5.765625 -5.375 15.984375 -5.375q10.15625 0 14.65625 5.296875q4.500061 5.296875 4.500061 13.140625l0 5.1875l-23.328186 0l0 0.4375q0 2.65625 1.578125 3.921875q1.59375 1.25 5.265625 1.25q4.390625 0 8.34375 -0.640625q3.968811 -0.65625 6.921936 -1.65625l0 11.515625q-2.53125 1.375 -7.390686 2.5q-4.859375 1.109375 -10.546875 1.109375zm4.171875 -26.359375l0 -0.859375q0 -2.453125 -1.046875 -3.53125q-1.03125 -1.078125 -3.125 -1.078125q-2.09375 0 -3.140625 1.125q-1.03125 1.109375 -1.03125 3.484375l0 0.859375l8.34375 0zm47.893066 -15.703125q1.4375 0 2.734375 0.296875q1.296875 0.28125 2.15625 0.71875l0 13.75q-2.953125 -1.21875 -6.34375 -1.21875q-4.53125 0 -6.984375 2.375q-2.4375 2.375 -2.4375 7.046875l0 6.265625l6.46875 0l0 11.8125l-26.203125 0l0 -11.8125l3.171875 0l0 -16.40625l-3.171875 0l0 -11.8125l19.734375 0l0 5.25q2.015625 -3.015625 4.609375 -4.640625q2.59375 -1.625 6.265625 -1.625zm21.38153 42.0625q-7.34375 0 -11.0625 -5.46875q-3.703125 -5.484375 -3.703125 -15.5625q0 -10.078125 3.703125 -15.546875q3.71875 -5.484375 11.0625 -5.484375q3.671875 0 6.515625 1.8125q2.84375 1.796875 4.640625 4.09375l0 -9.0625l-4.25 0l0 -11.8125l20.8125 0l0 44.203125l3.171875 0l0 11.8125l-19.734375 0l0 -4.890625q-1.796875 2.296875 -4.640625 4.109375q-2.84375 1.796875 -6.515625 1.796875zm6.984375 -12.828125q2.078125 0 3.125 -1.109375q1.046875 -1.125 1.046875 -3.5l0 -7.1875q0 -2.375 -1.046875 -3.484375q-1.046875 -1.125 -3.125 -1.125q-2.09375 0 -3.140625 1.125q-1.046875 1.109375 -1.046875 3.484375l0 7.1875q0 2.375 1.046875 3.5q1.046875 1.109375 3.140625 1.109375zm68.17285 0l0 11.8125l-19.0 0l0 -4.890625q-1.578125 2.296875 -4.4375 4.109375q-2.84375 1.796875 -6.9375 1.796875q-5.40625 0 -8.5 -2.875q-3.09375 -2.890625 -3.09375 -8.15625q0 -13.59375 23.109375 -13.953125q-0.21875 -2.453125 -1.875 -3.34375q-1.65625 -0.90625 -5.609375 -0.90625q-3.234375 0 -6.953125 0.6875q-3.703125 0.671875 -6.796875 1.828125l0 -13.25q3.8125 -0.9375 8.265625 -1.515625q4.46875 -0.578125 8.71875 -0.578125q10.734375 0 15.34375 3.890625q4.609375 3.890625 4.609375 12.03125l0 13.3125l3.15625 0zm-19.0 -5.03125q-3.234375 0 -5.0 0.859375q-1.765625 0.859375 -1.765625 2.875q0 1.234375 0.75 1.984375q0.765625 0.75 2.125 0.75q1.875 0 2.875 -1.578125q1.015625 -1.578125 1.015625 -4.46875l0 -0.421875zm94.03003 5.03125l0 11.8125l-22.75 0l0 -11.8125l3.015625 0l0 -11.796875q0 -2.375 -1.015625 -3.484375q-1.0 -1.125 -3.015625 -1.125q-4.3125 0 -4.3125 4.609375l0 11.796875l3.015625 0l0 11.8125l-22.59375 0l0 -11.8125l3.015625 0l0 -11.796875q0 -2.375 -1.015625 -3.484375q-1.0 -1.125 -3.015625 -1.125q-4.3125 0 -4.3125 4.609375l0 11.796875l3.015625 0l0 11.8125l-22.75 0l0 -11.8125l3.171875 0l0 -16.40625l-3.171875 0l0 -11.8125l19.734375 0l0 5.609375q5.171875 -6.625 12.953125 -6.625q4.390625 0 7.15625 2.0625q2.78125 2.046875 3.9375 5.796875q2.578125 -3.75 5.921875 -5.765625q3.359375 -2.015625 7.890625 -2.015625q5.984375 0 8.96875 3.75q2.984375 3.734375 2.984375 10.296875l0 15.109375l3.171875 0z" fill-rule="nonzero"/><path fill="#000000" fill-opacity="0.0" d="m55.031498 350.40158l156.69292 0l0 38.992126l-156.69292 0z" fill-rule="evenodd"/><path fill="#d9d9d9" d="m69.92212 377.08325q-2.640625 0 -4.140625 -1.390625q-1.484375 -1.390625 -1.484375 -4.0625q0 -2.671875 1.484375 -4.0625q1.5 -1.390625 4.140625 -1.390625q2.640625 0 3.796875 1.375q1.171875 1.375 1.171875 3.40625l0 1.34375l-6.046875 0l0 0.109375q0 0.6875 0.40625 1.015625q0.421875 0.328125 1.359375 0.328125q1.140625 0 2.171875 -0.15625q1.03125 -0.171875 1.796875 -0.4375l0 2.984375q-0.65625 0.359375 -1.921875 0.65625q-1.25 0.28125 -2.734375 0.28125zm1.09375 -6.828125l0 -0.234375q0 -0.625 -0.28125 -0.90625q-0.265625 -0.28125 -0.8125 -0.28125q-0.53125 0 -0.8125 0.296875q-0.265625 0.28125 -0.265625 0.890625l0 0.234375l2.171875 0zm7.4255676 6.5625l-2.359375 -7.3125l-0.78125 0l0 -3.0625l5.765625 0l0 3.0625l-0.78125 0l0.984375 3.6875l0.1875 0l0.984375 -3.6875l-0.78125 0l0 -3.0625l5.40625 0l0 3.0625l-0.78125 0l-2.296875 7.3125l-5.546875 0zm14.707718 0.265625q-2.640625 0 -4.140625 -1.390625q-1.484375 -1.390625 -1.484375 -4.0625q0 -2.671875 1.484375 -4.0625q1.5 -1.390625 4.140625 -1.390625q2.640625 0 3.796875 1.375q1.171875 1.375 1.171875 3.40625l0 1.34375l-6.046875 0l0 0.109375q0 0.6875 0.40625 1.015625q0.421875 0.328125 1.359375 0.328125q1.140625 0 2.171875 -0.15625q1.03125 -0.171875 1.796875 -0.4375l0 2.984375q-0.65625 0.359375 -1.921875 0.65625q-1.25 0.28125 -2.734375 0.28125zm1.09375 -6.828125l0 -0.234375q0 -0.625 -0.28125 -0.90625q-0.265625 -0.28125 -0.8125 -0.28125q-0.53125 0 -0.8125 0.296875q-0.265625 0.28125 -0.265625 0.890625l0 0.234375l2.171875 0zm16.816193 3.5l0 3.0625l-5.890625 0l0 -3.0625l0.78125 0l0 -3.0625q0 -0.609375 -0.265625 -0.890625q-0.25 -0.296875 -0.78125 -0.296875q-1.109375 0 -1.109375 1.1875l0 3.0625l0.78125 0l0 3.0625l-5.90625 0l0 -3.0625l0.828125 0l0 -4.25l-0.828125 0l0 -3.0625l5.125 0l0 1.453125q1.34375 -1.71875 3.359375 -1.71875q1.546875 0 2.3125 0.984375q0.78125 0.96875 0.78125 2.65625l0 3.9375l0.8125 0zm5.2035065 3.328125q-1.96875 0 -2.96875 -0.953125q-1.0 -0.96875 -1.0 -3.25l0 -3.375l-0.8125 0l0 -3.0625q0.703125 0 1.046875 -0.359375q0.359375 -0.359375 0.359375 -1.0l0 -0.84375l3.953125 0l0 2.203125l2.53125 0l0 3.0625l-2.53125 0l0 3.0625q0 0.609375 0.265625 0.90625q0.28125 0.28125 0.828125 0.28125q0.703125 0 1.546875 -0.171875l0 2.9375q-0.53125 0.203125 -1.421875 0.375q-0.875 0.1875 -1.796875 0.1875zm14.979599 0q-2.65625 0 -4.15625 -1.390625q-1.484375 -1.390625 -1.484375 -4.0625q0 -2.671875 1.484375 -4.0625q1.5 -1.390625 4.140625 -1.390625q1.296875 0 2.46875 0.359375q1.171875 0.359375 1.828125 0.796875l0 3.703125l-3.203125 0l0 -0.34375q0 -0.609375 -0.265625 -0.890625q-0.265625 -0.296875 -0.828125 -0.296875q-1.078125 0 -1.078125 1.1875l0 1.609375q0 1.453125 1.65625 1.453125q1.546875 0 3.609375 -0.328125l0 2.921875q-0.640625 0.28125 -1.796875 0.5q-1.140625 0.234375 -2.375 0.234375zm10.4691925 0q-2.640625 0 -4.140625 -1.390625q-1.484375 -1.390625 -1.484375 -4.0625q0 -2.671875 1.484375 -4.0625q1.5 -1.390625 4.140625 -1.390625q2.6875 0 4.15625 1.421875q1.484375 1.40625 1.484375 4.03125q0 2.671875 -1.5 4.0625q-1.484375 1.390625 -4.140625 1.390625zm0 -3.328125q0.546875 0 0.8125 -0.28125q0.28125 -0.296875 0.28125 -0.90625l0 -1.875q0 -0.609375 -0.28125 -0.890625q-0.265625 -0.296875 -0.8125 -0.296875q-0.53125 0 -0.8125 0.296875q-0.265625 0.28125 -0.265625 0.890625l0 1.875q0 0.609375 0.265625 0.90625q0.28125 0.28125 0.8125 0.28125zm9.915756 3.328125q-1.90625 0 -2.875 -1.421875q-0.953125 -1.421875 -0.953125 -4.03125q0 -2.609375 0.953125 -4.03125q0.96875 -1.421875 2.875 -1.421875q0.953125 0 1.6875 0.46875q0.734375 0.46875 1.203125 1.0625l0 -2.34375l-1.109375 0l0 -3.0625l5.390625 0l0 11.453125l0.828125 0l0 3.0625l-5.109375 0l0 -1.265625q-0.46875 0.59375 -1.203125 1.0625q-0.734375 0.46875 -1.6875 0.46875zm1.8125 -3.328125q0.53125 0 0.796875 -0.28125q0.28125 -0.296875 0.28125 -0.90625l0 -1.875q0 -0.609375 -0.28125 -0.890625q-0.265625 -0.296875 -0.796875 -0.296875q-0.546875 0 -0.828125 0.296875q-0.265625 0.28125 -0.265625 0.890625l0 1.875q0 0.609375 0.265625 0.90625q0.28125 0.28125 0.828125 0.28125zm12.338318 3.328125q-2.640625 0 -4.140625 -1.390625q-1.484375 -1.390625 -1.484375 -4.0625q0 -2.671875 1.484375 -4.0625q1.5 -1.390625 4.140625 -1.390625q2.640625 0 3.796875 1.375q1.171875 1.375 1.171875 3.40625l0 1.34375l-6.046875 0l0 0.109375q0 0.6875 0.40625 1.015625q0.421875 0.328125 1.359375 0.328125q1.140625 0 2.171875 -0.15625q1.03125 -0.171875 1.796875 -0.4375l0 2.984375q-0.65625 0.359375 -1.921875 0.65625q-1.25 0.28125 -2.734375 0.28125zm1.09375 -6.828125l0 -0.234375q0 -0.625 -0.28125 -0.90625q-0.265625 -0.28125 -0.8125 -0.28125q-0.53125 0 -0.8125 0.296875q-0.265625 0.28125 -0.265625 0.890625l0 0.234375l2.171875 0zm11.803696 6.5625l0 -0.40625l0.390625 -3.1875l-2.09375 0l0.296875 -2.59375l2.109375 0l0.25 -1.96875l-2.28125 0l0.296875 -2.59375l2.3125 0l0.46875 -3.765625l2.65625 0l0 0.40625l-0.4375 3.359375l2.25 0l0.453125 -3.765625l2.65625 0l0 0.40625l-0.4375 3.359375l2.25 0l-0.296875 2.59375l-2.265625 0l-0.234375 1.96875l2.421875 0l-0.296875 2.59375l-2.453125 0l-0.421875 3.59375l-2.671875 0l0 -0.40625l0.390625 -3.1875l-2.21875 0l-0.421875 3.59375l-2.671875 0zm3.40625 -6.1875l2.234375 0l0.234375 -1.96875l-2.21875 0l-0.25 1.96875z" fill-rule="nonzero"/><path fill="#000000" fill-opacity="0.0" d="m62.65354 164.79265l141.44882 0l0 38.992126l-141.44882 0z" fill-rule="evenodd"/><path fill="#d9d9d9" d="m82.77854 176.69308l6.109375 0l0 3.0625l-0.921875 0l0 11.453125l-5.25 0l-5.46875 -8.40625l0 5.34375l0.90625 0l0 3.0625l-6.125 0l0 -3.0625l0.9375 0l0 -8.390625l-0.9375 0l0 -3.0625l6.734375 0l4.90625 7.484375l0 -4.421875l-0.890625 0l0 -3.0625zm17.667938 11.453125l0 3.0625l-4.9375 0l0 -1.265625q-0.40625 0.59375 -1.140625 1.0625q-0.734375 0.46875 -1.796875 0.46875q-1.40625 0 -2.21875 -0.75q-0.796875 -0.75 -0.796875 -2.109375q0 -3.53125 6.0 -3.625q-0.0625 -0.625 -0.5 -0.859375q-0.421875 -0.234375 -1.4375 -0.234375q-0.84375 0 -1.8125 0.1875q-0.953125 0.171875 -1.75 0.46875l0 -3.4375q0.984375 -0.234375 2.140625 -0.390625q1.15625 -0.15625 2.25 -0.15625q2.78125 0 3.96875 1.015625q1.203125 1.0 1.203125 3.109375l0 3.453125l0.828125 0zm-4.9375 -1.296875q-0.828125 0 -1.296875 0.21875q-0.453125 0.21875 -0.453125 0.75q0 0.3125 0.1875 0.515625q0.203125 0.1875 0.5625 0.1875q0.484375 0 0.734375 -0.40625q0.265625 -0.40625 0.265625 -1.15625l0 -0.109375zm7.7738037 4.359375l-2.359375 -7.3125l-0.78125 0l0 -3.0625l5.765625 0l0 3.0625l-0.78125 0l0.984375 3.6875l0.1875 0l0.984375 -3.6875l-0.78125 0l0 -3.0625l5.40625 0l0 3.0625l-0.78125 0l-2.296875 7.3125l-5.546875 0zm10.051468 -11.40625l0 -3.109375l3.796875 0l0 3.109375l-3.796875 0zm-0.90625 11.40625l0 -3.0625l0.828125 0l0 -4.25l-0.828125 0l0 -3.0625l5.125 0l0 7.3125l0.8125 0l0 3.0625l-5.9375 0zm11.923813 4.40625q-1.34375 0 -2.5625 -0.1875q-1.21875 -0.1875 -1.890625 -0.4375l0 -3.046875q1.984375 0.34375 3.546875 0.34375q1.0625 0 1.53125 -0.328125q0.484375 -0.328125 0.484375 -1.21875l0 -0.796875q-0.46875 0.59375 -1.203125 1.0625q-0.734375 0.46875 -1.6875 0.46875q-1.90625 0 -2.875 -1.421875q-0.953125 -1.421875 -0.953125 -4.03125q0 -2.609375 0.953125 -4.03125q0.96875 -1.421875 2.875 -1.421875q0.953125 0 1.6875 0.46875q0.734375 0.46875 1.203125 1.0625l0 -1.265625l5.1093826 0l0 3.0625l-0.828125 0l0 6.5625q0 2.703125 -1.34375 3.921875q-1.3437576 1.234375 -4.0468826 1.234375zm0.03125 -7.46875q0.53125 0 0.796875 -0.28125q0.28125 -0.296875 0.28125 -0.90625l0 -1.875q0 -0.609375 -0.28125 -0.890625q-0.265625 -0.296875 -0.796875 -0.296875q-0.546875 0 -0.828125 0.296875q-0.265625 0.28125 -0.265625 0.890625l0 1.875q0 0.609375 0.265625 0.90625q0.28125 0.28125 0.828125 0.28125zm17.59182 0l0 3.0625l-4.9375 0l0 -1.265625q-0.40625 0.59375 -1.140625 1.0625q-0.734375 0.46875 -1.796875 0.46875q-1.40625 0 -2.21875 -0.75q-0.796875 -0.75 -0.796875 -2.109375q0 -3.53125 6.0 -3.625q-0.0625 -0.625 -0.5 -0.859375q-0.421875 -0.234375 -1.4375 -0.234375q-0.84375 0 -1.8125 0.1875q-0.953125 0.171875 -1.75 0.46875l0 -3.4375q0.984375 -0.234375 2.140625 -0.390625q1.15625 -0.15625 2.25 -0.15625q2.78125 0 3.96875 1.015625q1.203125 1.0 1.203125 3.109375l0 3.453125l0.828125 0zm-4.9375 -1.296875q-0.828125 0 -1.296875 0.21875q-0.453125 0.21875 -0.453125 0.75q0 0.3125 0.1875 0.515625q0.203125 0.1875 0.5625 0.1875q0.484375 0 0.734375 -0.40625q0.265625 -0.40625 0.265625 -1.15625l0 -0.109375zm10.129852 4.625q-1.96875 0 -2.96875 -0.953125q-1.0 -0.96875 -1.0 -3.25l0 -3.375l-0.8125 0l0 -3.0625q0.703125 0 1.046875 -0.359375q0.359375 -0.359375 0.359375 -1.0l0 -0.84375l3.953125 0l0 2.203125l2.53125 0l0 3.0625l-2.53125 0l0 3.0625q0 0.609375 0.265625 0.90625q0.28125 0.28125 0.828125 0.28125q0.703125 0 1.546875 -0.171875l0 2.9375q-0.53125 0.203125 -1.421875 0.375q-0.875 0.1875 -1.796875 0.1875zm9.367096 0q-2.640625 0 -4.140625 -1.390625q-1.484375 -1.390625 -1.484375 -4.0625q0 -2.671875 1.484375 -4.0625q1.5 -1.390625 4.140625 -1.390625q2.640625 0 3.796875 1.375q1.171875 1.375 1.171875 3.40625l0 1.34375l-6.046875 0l0 0.109375q0 0.6875 0.40625 1.015625q0.421875 0.328125 1.359375 0.328125q1.140625 0 2.171875 -0.15625q1.03125 -0.171875 1.796875 -0.4375l0 2.984375q-0.65625 0.359375 -1.921875 0.65625q-1.25 0.28125 -2.734375 0.28125zm1.09375 -6.828125l0 -0.234375q0 -0.625 -0.28125 -0.90625q-0.265625 -0.28125 -0.8125 -0.28125q-0.53125 0 -0.8125 0.296875q-0.265625 0.28125 -0.265625 0.890625l0 0.234375l2.171875 0zm14.631821 6.828125q-1.96875 0 -2.96875 -0.953125q-1.0 -0.96875 -1.0 -3.25l0 -3.375l-0.8125 0l0 -3.0625q0.703125 0 1.046875 -0.359375q0.359375 -0.359375 0.359375 -1.0l0 -0.84375l3.953125 0l0 2.203125l2.53125 0l0 3.0625l-2.53125 0l0 3.0625q0 0.609375 0.265625 0.90625q0.28125 0.28125 0.828125 0.28125q0.703125 0 1.546875 -0.171875l0 2.9375q-0.53125 0.203125 -1.421875 0.375q-0.875 0.1875 -1.796875 0.1875zm9.367096 0q-2.640625 0 -4.140625 -1.390625q-1.484375 -1.390625 -1.484375 -4.0625q0 -2.671875 1.484375 -4.0625q1.5 -1.390625 4.140625 -1.390625q2.6875 0 4.15625 1.421875q1.484375 1.40625 1.484375 4.03125q0 2.671875 -1.5 4.0625q-1.484375 1.390625 -4.140625 1.390625zm0 -3.328125q0.546875 0 0.8125 -0.28125q0.28125 -0.296875 0.28125 -0.90625l0 -1.875q0 -0.609375 -0.28125 -0.890625q-0.265625 -0.296875 -0.8125 -0.296875q-0.53125 0 -0.8125 0.296875q-0.265625 0.28125 -0.265625 0.890625l0 1.875q0 0.609375 0.265625 0.90625q0.28125 0.28125 0.8125 0.28125z" fill-rule="nonzero"/><path fill="#000000" fill-opacity="0.0" d="m373.16534 27.92651l213.66931 0l0 38.992123l-213.66931 0z" fill-rule="evenodd"/><path fill="#d9d9d9" d="m396.46222 44.34257l-3.21875 0l0 -1.453125l-1.1875 0l0 8.390625l1.296875 0l0 3.0625l-7.828125 0l0 -3.0625l1.3125 0l0 -8.390625l-1.203125 0l0 1.453125l-3.203125 0l0 -4.515625l14.03125 0l0 4.515625zm4.8389587 10.265625q-2.640625 0 -4.140625 -1.390625q-1.484375 -1.390625 -1.484375 -4.0625q0 -2.671875 1.484375 -4.0625q1.5 -1.390625 4.140625 -1.390625q2.6875 0 4.15625 1.421875q1.484375 1.40625 1.484375 4.03125q0 2.671875 -1.5 4.0625q-1.484375 1.390625 -4.140625 1.390625zm0 -3.328125q0.546875 0 0.8125 -0.28125q0.28125 -0.296875 0.28125 -0.90625l0 -1.875q0 -0.609375 -0.28125 -0.890625q-0.265625 -0.296875 -0.8125 -0.296875q-0.53125 0 -0.8125 0.296875q-0.265625 0.28125 -0.265625 0.890625l0 1.875q0 0.609375 0.265625 0.90625q0.28125 0.28125 0.8125 0.28125zm22.71576 0l0 3.0625l-4.9375 0l0 -1.265625q-0.40625 0.59375 -1.140625 1.0625q-0.734375 0.46875 -1.796875 0.46875q-1.40625 0 -2.21875 -0.75q-0.796875 -0.75 -0.796875 -2.109375q0 -3.53125 6.0 -3.625q-0.0625 -0.625 -0.5 -0.859375q-0.421875 -0.234375 -1.4375 -0.234375q-0.84375 0 -1.8125 0.1875q-0.953125 0.171875 -1.75 0.46875l0 -3.4375q0.984375 -0.234375 2.140625 -0.390625q1.15625 -0.15625 2.25 -0.15625q2.78125 0 3.96875 1.015625q1.203125 1.0 1.203125 3.109375l0 3.453125l0.828125 0zm-4.9375 -1.296875q-0.828125 0 -1.296875 0.21875q-0.453125 0.21875 -0.453125 0.75q0 0.3125 0.1875 0.515625q0.203125 0.1875 0.5625 0.1875q0.484375 0 0.734375 -0.40625q0.265625 -0.40625 0.265625 -1.15625l0 -0.109375zm10.067352 4.625q-2.359375 0 -4.546875 -0.75l0 -2.765625l3.03125 0l0 0.1875q0 0.890625 1.140625 0.890625q1.0 0 1.0 -0.6875q0 -0.375 -0.296875 -0.546875q-0.28125 -0.1875 -1.0 -0.328125l-0.9375 -0.171875q-2.9375 -0.515625 -2.9375 -3.3125q0 -1.625 1.234375 -2.515625q1.234375 -0.90625 3.328125 -0.90625q2.328125 0 3.9375 0.796875l0 2.59375l-2.84375 0l0 -0.1875q0 -0.375 -0.25 -0.5625q-0.25 -0.203125 -0.734375 -0.203125q-0.9375 0 -0.9375 0.59375q0 0.3125 0.265625 0.484375q0.265625 0.171875 0.953125 0.3125l1.0625 0.203125q1.65625 0.328125 2.359375 1.1875q0.71875 0.84375 0.71875 2.1875q0 1.703125 -1.1875 2.609375q-1.1875 0.890625 -3.359375 0.890625zm16.385742 -3.328125l0.8125 0l0 3.0625l-4.578125 0l-1.921875 -3.578125l-0.4375 0l0 3.578125l-5.125 0l0 -3.0625l0.828125 0l0 -8.390625l-0.828125 0l0 -3.0625l5.125 0l0 7.578125l0.4375 0l2.3125 -3.4375l3.9375 0l0 3.0625l-0.765625 0l-1.578125 1.765625l1.78125 2.484375zm11.605194 3.328125q-1.96875 0 -2.96875 -0.953125q-1.0 -0.96875 -1.0 -3.25l0 -3.375l-0.8125 0l0 -3.0625q0.703125 0 1.046875 -0.359375q0.359375 -0.359375 0.359375 -1.0l0 -0.84375l3.953125 0l0 2.203125l2.53125 0l0 3.0625l-2.53125 0l0 3.0625q0 0.609375 0.265625 0.90625q0.28125 0.28125 0.828125 0.28125q0.703125 0 1.546875 -0.171875l0 2.9375q-0.53125 0.203125 -1.421875 0.375q-0.875 0.1875 -1.796875 0.1875zm16.19522 -3.328125l0 3.0625l-5.890625 0l0 -3.0625l0.78125 0l0 -3.0625q0 -0.609375 -0.265625 -0.890625q-0.25 -0.296875 -0.78125 -0.296875q-1.109375 0 -1.109375 1.1875l0 3.0625l0.78125 0l0 3.0625l-5.90625 0l0 -3.0625l0.828125 0l0 -8.390625l-0.828125 0l0 -3.0625l5.125 0l0 5.59375q0.6875 -0.859375 1.484375 -1.28125q0.8125 -0.4375 1.875 -0.4375q1.546875 0 2.3125 0.984375q0.78125 0.96875 0.78125 2.65625l0 3.9375l0.8125 0zm6.156616 3.328125q-2.640625 0 -4.140625 -1.390625q-1.484375 -1.390625 -1.484375 -4.0625q0 -2.671875 1.484375 -4.0625q1.5 -1.390625 4.140625 -1.390625q2.640625 0 3.796875 1.375q1.171875 1.375 1.171875 3.40625l0 1.34375l-6.046875 0l0 0.109375q0 0.6875 0.40625 1.015625q0.421875 0.328125 1.359375 0.328125q1.140625 0 2.171875 -0.15625q1.03125 -0.171875 1.796875 -0.4375l0 2.984375q-0.65625 0.359375 -1.921875 0.65625q-1.25 0.28125 -2.734375 0.28125zm1.09375 -6.828125l0 -0.234375q0 -0.625 -0.28125 -0.90625q-0.265625 -0.28125 -0.8125 -0.28125q-0.53125 0 -0.8125 0.296875q-0.265625 0.28125 -0.265625 0.890625l0 0.234375l2.171875 0zm15.303711 7.640625l1.296875 0l0 -2.34375q-0.46875 0.59375 -1.203125 1.0625q-0.734375 0.46875 -1.6875 0.46875q-1.90625 0 -2.875 -1.421875q-0.953125 -1.421875 -0.953125 -4.03125q0 -2.609375 0.953125 -4.03125q0.96875 -1.421875 2.875 -1.421875q0.953125 0 1.6875 0.46875q0.734375 0.46875 1.203125 1.0625l0 -1.265625l5.109375 0l0 3.0625l-0.828125 0l0 11.453125l-5.578125 0l0 -3.0625zm0.21875 -4.140625q0.53125 0 0.796875 -0.28125q0.28125 -0.296875 0.28125 -0.90625l0 -1.875q0 -0.609375 -0.28125 -0.890625q-0.265625 -0.296875 -0.796875 -0.296875q-0.546875 0 -0.828125 0.296875q-0.265625 0.28125 -0.265625 0.890625l0 1.875q0 0.609375 0.265625 0.90625q0.28125 0.28125 0.828125 0.28125zm18.94513 0l0 3.0625l-5.109375 0l0 -1.453125q-1.34375 1.71875 -3.359375 1.71875q-1.546875 0 -2.328125 -0.96875q-0.765625 -0.96875 -0.765625 -2.671875l0 -3.9375l-0.828125 0l0 -3.0625l5.109375 0l0 6.125q0 0.609375 0.265625 0.90625q0.28125 0.28125 0.828125 0.28125q0.53125 0 0.796875 -0.28125q0.28125 -0.296875 0.28125 -0.90625l0 -3.0625l-1.0 0l0 -3.0625l5.296875 0l0 7.3125l0.8125 0zm6.0794067 3.328125q-2.640625 0 -4.140625 -1.390625q-1.484375 -1.390625 -1.484375 -4.0625q0 -2.671875 1.484375 -4.0625q1.5 -1.390625 4.140625 -1.390625q2.640625 0 3.796875 1.375q1.171875 1.375 1.171875 3.40625l0 1.34375l-6.046875 0l0 0.109375q0 0.6875 0.40625 1.015625q0.421875 0.328125 1.359375 0.328125q1.140625 0 2.171875 -0.15625q1.03125 -0.171875 1.796875 -0.4375l0 2.984375q-0.65625 0.359375 -1.921875 0.65625q-1.25 0.28125 -2.734375 0.28125zm1.09375 -6.828125l0 -0.234375q0 -0.625 -0.28125 -0.90625q-0.265625 -0.28125 -0.8125 -0.28125q-0.53125 0 -0.8125 0.296875q-0.265625 0.28125 -0.265625 0.890625l0 0.234375l2.171875 0zm8.972473 6.828125q-2.359375 0 -4.546875 -0.75l0 -2.765625l3.03125 0l0 0.1875q0 0.890625 1.140625 0.890625q1.0 0 1.0 -0.6875q0 -0.375 -0.296875 -0.546875q-0.28125 -0.1875 -1.0 -0.328125l-0.9375 -0.171875q-2.9375 -0.515625 -2.9375 -3.3125q0 -1.625 1.234375 -2.515625q1.234375 -0.90625 3.328125 -0.90625q2.328125 0 3.9375 0.796875l0 2.59375l-2.84375 0l0 -0.1875q0 -0.375 -0.25 -0.5625q-0.25 -0.203125 -0.734375 -0.203125q-0.9375 0 -0.9375 0.59375q0 0.3125 0.265625 0.484375q0.265625 0.171875 0.953125 0.3125l1.0625 0.203125q1.65625 0.328125 2.359375 1.1875q0.71875 0.84375 0.71875 2.1875q0 1.703125 -1.1875 2.609375q-1.1875 0.890625 -3.359375 0.890625zm9.745117 0q-1.96875 0 -2.96875 -0.953125q-1.0 -0.96875 -1.0 -3.25l0 -3.375l-0.8125 0l0 -3.0625q0.703125 0 1.046875 -0.359375q0.359375 -0.359375 0.359375 -1.0l0 -0.84375l3.953125 0l0 2.203125l2.53125 0l0 3.0625l-2.53125 0l0 3.0625q0 0.609375 0.265625 0.90625q0.28125 0.28125 0.828125 0.28125q0.703125 0 1.546875 -0.171875l0 2.9375q-0.53125 0.203125 -1.421875 0.375q-0.875 0.1875 -1.796875 0.1875zm4.7108154 -11.671875l0 -3.109375l3.796875 0l0 3.109375l-3.796875 0zm-0.90625 11.40625l0 -3.0625l0.828125 0l0 -4.25l-0.828125 0l0 -3.0625l5.125 0l0 7.3125l0.8125 0l0 3.0625l-5.9375 0zm12.017578 0.265625q-2.640625 0 -4.140625 -1.390625q-1.484375 -1.390625 -1.484375 -4.0625q0 -2.671875 1.484375 -4.0625q1.5 -1.390625 4.140625 -1.390625q2.6875 0 4.15625 1.421875q1.484375 1.40625 1.484375 4.03125q0 2.671875 -1.5 4.0625q-1.484375 1.390625 -4.140625 1.390625zm0 -3.328125q0.546875 0 0.8125 -0.28125q0.28125 -0.296875 0.28125 -0.90625l0 -1.875q0 -0.609375 -0.28125 -0.890625q-0.265625 -0.296875 -0.8125 -0.296875q-0.53125 0 -0.8125 0.296875q-0.265625 0.28125 -0.265625 0.890625l0 1.875q0 0.609375 0.265625 0.90625q0.28125 0.28125 0.8125 0.28125zm18.618896 0l0 3.0625l-5.890625 0l0 -3.0625l0.78125 0l0 -3.0625q0 -0.609375 -0.265625 -0.890625q-0.25 -0.296875 -0.78125 -0.296875q-1.109375 0 -1.109375 1.1875l0 3.0625l0.78125 0l0 3.0625l-5.90625 0l0 -3.0625l0.828125 0l0 -4.25l-0.828125 0l0 -3.0625l5.125 0l0 1.453125q1.34375 -1.71875 3.359375 -1.71875q1.546875 0 2.3125 0.984375q0.78125 0.96875 0.78125 2.65625l0 3.9375l0.8125 0z" fill-rule="nonzero"/></g></svg>